<mxfile host="app.diagrams.net" agent="Mozilla/5.0 (Macintosh; Intel Mac OS X 10_15_7) AppleWebKit/537.36 (KHTML, like Gecko) Chrome/131.0.0.0 Safari/537.36" version="24.9.3">
  <diagram name="Page-1" id="3M9jQRyPrjrfi4vgrZQc">
    <mxGraphModel dx="2074" dy="1121" grid="1" gridSize="10" guides="1" tooltips="1" connect="1" arrows="1" fold="1" page="1" pageScale="1" pageWidth="827" pageHeight="1169" math="0" shadow="0">
      <root>
        <mxCell id="0" />
        <mxCell id="1" parent="0" />
        <mxCell id="De63i7EJQq2cx_wD7R2N-6" style="edgeStyle=orthogonalEdgeStyle;rounded=0;orthogonalLoop=1;jettySize=auto;html=1;exitX=0.5;exitY=1;exitDx=0;exitDy=0;entryX=0;entryY=0.5;entryDx=0;entryDy=0;" edge="1" parent="1" source="De63i7EJQq2cx_wD7R2N-3" target="De63i7EJQq2cx_wD7R2N-5">
          <mxGeometry relative="1" as="geometry" />
        </mxCell>
        <mxCell id="De63i7EJQq2cx_wD7R2N-7" style="edgeStyle=orthogonalEdgeStyle;rounded=0;orthogonalLoop=1;jettySize=auto;html=1;exitX=0.5;exitY=0;exitDx=0;exitDy=0;entryX=0;entryY=0.5;entryDx=0;entryDy=0;" edge="1" parent="1" source="De63i7EJQq2cx_wD7R2N-3" target="De63i7EJQq2cx_wD7R2N-4">
          <mxGeometry relative="1" as="geometry" />
        </mxCell>
        <mxCell id="De63i7EJQq2cx_wD7R2N-11" style="edgeStyle=orthogonalEdgeStyle;rounded=0;orthogonalLoop=1;jettySize=auto;html=1;exitX=0.5;exitY=1;exitDx=0;exitDy=0;entryX=0;entryY=0.5;entryDx=0;entryDy=0;" edge="1" parent="1" source="De63i7EJQq2cx_wD7R2N-3" target="De63i7EJQq2cx_wD7R2N-9">
          <mxGeometry relative="1" as="geometry" />
        </mxCell>
        <mxCell id="De63i7EJQq2cx_wD7R2N-17" style="edgeStyle=orthogonalEdgeStyle;rounded=0;orthogonalLoop=1;jettySize=auto;html=1;exitX=0.5;exitY=1;exitDx=0;exitDy=0;entryX=0;entryY=0.5;entryDx=0;entryDy=0;" edge="1" parent="1" source="De63i7EJQq2cx_wD7R2N-3" target="De63i7EJQq2cx_wD7R2N-12">
          <mxGeometry relative="1" as="geometry" />
        </mxCell>
        <mxCell id="De63i7EJQq2cx_wD7R2N-3" value="android-app" style="rounded=0;whiteSpace=wrap;html=1;fillColor=#d5e8d4;strokeColor=#82b366;" vertex="1" parent="1">
          <mxGeometry x="194" y="80" width="120" height="40" as="geometry" />
        </mxCell>
        <mxCell id="De63i7EJQq2cx_wD7R2N-4" value="core-ui" style="rounded=0;whiteSpace=wrap;html=1;fillColor=#d5e8d4;strokeColor=#82b366;" vertex="1" parent="1">
          <mxGeometry x="354" y="40" width="120" height="40" as="geometry" />
        </mxCell>
        <mxCell id="De63i7EJQq2cx_wD7R2N-5" value="core-res" style="rounded=0;whiteSpace=wrap;html=1;fillColor=#d5e8d4;strokeColor=#82b366;" vertex="1" parent="1">
          <mxGeometry x="354" y="120" width="120" height="40" as="geometry" />
        </mxCell>
        <mxCell id="De63i7EJQq2cx_wD7R2N-10" style="edgeStyle=orthogonalEdgeStyle;rounded=0;orthogonalLoop=1;jettySize=auto;html=1;entryX=1;entryY=0.5;entryDx=0;entryDy=0;" edge="1" parent="1" source="De63i7EJQq2cx_wD7R2N-8" target="De63i7EJQq2cx_wD7R2N-9">
          <mxGeometry relative="1" as="geometry">
            <Array as="points">
              <mxPoint x="574" y="220" />
            </Array>
          </mxGeometry>
        </mxCell>
        <mxCell id="De63i7EJQq2cx_wD7R2N-8" value="ios-app" style="rounded=0;whiteSpace=wrap;html=1;fillColor=#f5f5f5;fontColor=#333333;strokeColor=#666666;" vertex="1" parent="1">
          <mxGeometry x="514" y="80" width="120" height="40" as="geometry" />
        </mxCell>
        <mxCell id="De63i7EJQq2cx_wD7R2N-26" style="edgeStyle=orthogonalEdgeStyle;rounded=0;orthogonalLoop=1;jettySize=auto;html=1;exitX=0.5;exitY=1;exitDx=0;exitDy=0;" edge="1" parent="1" source="De63i7EJQq2cx_wD7R2N-9" target="De63i7EJQq2cx_wD7R2N-12">
          <mxGeometry relative="1" as="geometry" />
        </mxCell>
        <mxCell id="De63i7EJQq2cx_wD7R2N-9" value="kmp-shared" style="rounded=0;whiteSpace=wrap;html=1;fillColor=#dae8fc;strokeColor=#6c8ebf;" vertex="1" parent="1">
          <mxGeometry x="354" y="200" width="120" height="40" as="geometry" />
        </mxCell>
        <mxCell id="De63i7EJQq2cx_wD7R2N-24" style="edgeStyle=orthogonalEdgeStyle;rounded=0;orthogonalLoop=1;jettySize=auto;html=1;exitX=0.5;exitY=1;exitDx=0;exitDy=0;entryX=0.5;entryY=0;entryDx=0;entryDy=0;" edge="1" parent="1" source="De63i7EJQq2cx_wD7R2N-12" target="De63i7EJQq2cx_wD7R2N-13">
          <mxGeometry relative="1" as="geometry" />
        </mxCell>
        <mxCell id="De63i7EJQq2cx_wD7R2N-25" style="edgeStyle=orthogonalEdgeStyle;rounded=0;orthogonalLoop=1;jettySize=auto;html=1;exitX=0.5;exitY=1;exitDx=0;exitDy=0;entryX=0.5;entryY=0;entryDx=0;entryDy=0;" edge="1" parent="1" source="De63i7EJQq2cx_wD7R2N-12" target="De63i7EJQq2cx_wD7R2N-14">
          <mxGeometry relative="1" as="geometry" />
        </mxCell>
        <mxCell id="De63i7EJQq2cx_wD7R2N-12" value="kmp-domain" style="rounded=0;whiteSpace=wrap;html=1;fillColor=#dae8fc;strokeColor=#6c8ebf;" vertex="1" parent="1">
          <mxGeometry x="354" y="280" width="120" height="40" as="geometry" />
        </mxCell>
        <mxCell id="De63i7EJQq2cx_wD7R2N-18" style="edgeStyle=orthogonalEdgeStyle;rounded=0;orthogonalLoop=1;jettySize=auto;html=1;entryX=0;entryY=0.5;entryDx=0;entryDy=0;" edge="1" parent="1" source="De63i7EJQq2cx_wD7R2N-13" target="De63i7EJQq2cx_wD7R2N-14">
          <mxGeometry relative="1" as="geometry" />
        </mxCell>
        <mxCell id="De63i7EJQq2cx_wD7R2N-19" style="edgeStyle=orthogonalEdgeStyle;rounded=0;orthogonalLoop=1;jettySize=auto;html=1;" edge="1" parent="1" source="De63i7EJQq2cx_wD7R2N-13" target="De63i7EJQq2cx_wD7R2N-15">
          <mxGeometry relative="1" as="geometry" />
        </mxCell>
        <mxCell id="De63i7EJQq2cx_wD7R2N-13" value="kmp-repository" style="rounded=0;whiteSpace=wrap;html=1;fillColor=#dae8fc;strokeColor=#6c8ebf;" vertex="1" parent="1">
          <mxGeometry x="274" y="360" width="120" height="40" as="geometry" />
        </mxCell>
        <mxCell id="De63i7EJQq2cx_wD7R2N-14" value="kmp-data" style="rounded=0;whiteSpace=wrap;html=1;fillColor=#dae8fc;strokeColor=#6c8ebf;" vertex="1" parent="1">
          <mxGeometry x="434" y="360" width="120" height="40" as="geometry" />
        </mxCell>
        <mxCell id="De63i7EJQq2cx_wD7R2N-15" value="kmp-local" style="rounded=0;whiteSpace=wrap;html=1;fillColor=#dae8fc;strokeColor=#6c8ebf;" vertex="1" parent="1">
          <mxGeometry x="274" y="440" width="120" height="40" as="geometry" />
        </mxCell>
        <mxCell id="De63i7EJQq2cx_wD7R2N-21" value="" style="edgeStyle=orthogonalEdgeStyle;rounded=0;orthogonalLoop=1;jettySize=auto;html=1;" edge="1" parent="1" source="De63i7EJQq2cx_wD7R2N-16" target="De63i7EJQq2cx_wD7R2N-14">
          <mxGeometry relative="1" as="geometry" />
        </mxCell>
        <mxCell id="De63i7EJQq2cx_wD7R2N-16" value="kmp-remote" style="rounded=0;whiteSpace=wrap;html=1;fillColor=#dae8fc;strokeColor=#6c8ebf;" vertex="1" parent="1">
          <mxGeometry x="434" y="440" width="120" height="40" as="geometry" />
        </mxCell>
        <mxCell id="De63i7EJQq2cx_wD7R2N-22" value="" style="endArrow=classic;html=1;rounded=0;exitX=1;exitY=0;exitDx=0;exitDy=0;entryX=0;entryY=1;entryDx=0;entryDy=0;" edge="1" parent="1" source="De63i7EJQq2cx_wD7R2N-15" target="De63i7EJQq2cx_wD7R2N-14">
          <mxGeometry width="50" height="50" relative="1" as="geometry">
            <mxPoint x="464" y="600" as="sourcePoint" />
            <mxPoint x="514" y="550" as="targetPoint" />
          </mxGeometry>
        </mxCell>
        <mxCell id="De63i7EJQq2cx_wD7R2N-23" value="" style="endArrow=classic;html=1;rounded=0;exitX=1;exitY=1;exitDx=0;exitDy=0;entryX=0;entryY=0;entryDx=0;entryDy=0;" edge="1" parent="1" source="De63i7EJQq2cx_wD7R2N-13" target="De63i7EJQq2cx_wD7R2N-16">
          <mxGeometry width="50" height="50" relative="1" as="geometry">
            <mxPoint x="404" y="450" as="sourcePoint" />
            <mxPoint x="444" y="410" as="targetPoint" />
          </mxGeometry>
        </mxCell>
      </root>
    </mxGraphModel>
  </diagram>
</mxfile>
